<svg width="239" height="34" viewBox="0 0 239 34" fill="none" xmlns="http://www.w3.org/2000/svg">
<path d="M12.9331 24.1617C11.9223 23.2778 11.0698 22.2301 10.4107 21.0669C9.42039 19.3193 8.86627 17.311 8.86627 15.2055V10.3374L16.7045 7.61371C16.8967 7.54694 17.1057 7.54695 17.2979 7.61374L19.7113 8.4526V13.3421C19.7113 15.2624 18.4977 16.9729 16.6853 17.6072L10.6738 19.7112" stroke="#0A2E6D" stroke-width="3.79575" stroke-linejoin="round"/>
<path d="M25.1338 10.337V15.2074C25.1338 20.3264 21.8578 24.871 17.0012 26.4892C16.2024 26.2232 15.4464 25.8779 14.7407 25.464" stroke="url(#paint0_linear_1524_11260)" stroke-width="3.79575" stroke-linejoin="round"/>
<path d="M35.0678 24.4437V9.26073H41.6399C42.9991 9.26073 44.1704 9.48486 45.1536 9.93312C46.1369 10.3669 46.8961 10.9959 47.4311 11.8202C47.9661 12.6444 48.2336 13.6277 48.2336 14.77C48.2336 15.8979 47.9661 16.8739 47.4311 17.6981C46.8961 18.5224 46.1369 19.1586 45.1536 19.6069C44.1704 20.0407 42.9991 20.2576 41.6399 20.2576H37.0199L38.5816 18.6742V24.4437H35.0678ZM38.5816 19.0646L37.0199 17.3945H41.4446C42.5291 17.3945 43.3389 17.1631 43.8739 16.7004C44.4089 16.2377 44.6764 15.5942 44.6764 14.77C44.6764 13.9313 44.4089 13.2806 43.8739 12.8179C43.3389 12.3552 42.5291 12.1238 41.4446 12.1238H37.0199L38.5816 10.4537V19.0646ZM56.2736 24.6172C54.9433 24.6172 53.7721 24.357 52.7599 23.8364C51.7621 23.3158 50.9885 22.6073 50.439 21.7108C49.8896 20.7998 49.6148 19.7659 49.6148 18.6091C49.6148 17.4379 49.8823 16.404 50.4173 15.5075C50.9668 14.5965 51.7115 13.8879 52.6514 13.3818C53.5913 12.8613 54.6541 12.601 55.8398 12.601C56.9822 12.601 58.0088 12.8468 58.9198 13.3385C59.8453 13.8156 60.5755 14.5097 61.1105 15.4207C61.6455 16.3172 61.913 17.3945 61.913 18.6525C61.913 18.7826 61.9058 18.9345 61.8914 19.108C61.8769 19.267 61.8624 19.4189 61.848 19.5635H52.3694V17.5897H60.0694L58.768 18.1753C58.768 17.568 58.6451 17.0402 58.3993 16.592C58.1534 16.1437 57.8136 15.7967 57.3798 15.5508C56.946 15.2906 56.4399 15.1604 55.8615 15.1604C55.2831 15.1604 54.7698 15.2906 54.3215 15.5508C53.8877 15.7967 53.5479 16.1509 53.3021 16.6136C53.0563 17.0619 52.9334 17.5969 52.9334 18.2187V18.7393C52.9334 19.3755 53.0708 19.9394 53.3455 20.4311C53.6347 20.9083 54.0323 21.277 54.5384 21.5373C55.059 21.7831 55.6663 21.906 56.3604 21.906C56.9822 21.906 57.5244 21.812 57.9872 21.624C58.4643 21.436 58.8981 21.1541 59.2886 20.7781L61.0888 22.7302C60.5538 23.3375 59.8814 23.8075 59.0717 24.1401C58.2619 24.4582 57.3292 24.6172 56.2736 24.6172ZM68.9375 24.6172C67.5638 24.6172 66.4938 24.2702 65.7274 23.5761C64.961 22.8676 64.5779 21.8192 64.5779 20.4311V10.1934H67.9615V20.3877C67.9615 20.8793 68.0916 21.2625 68.3519 21.5373C68.6122 21.7975 68.9665 21.9277 69.4147 21.9277C69.9497 21.9277 70.4052 21.7831 70.7812 21.4939L71.6922 23.8798C71.3451 24.1256 70.9258 24.3136 70.4342 24.4437C69.957 24.5594 69.4581 24.6172 68.9375 24.6172ZM62.7776 15.6376V13.0348H70.868V15.6376H62.7776ZM80.7493 24.4437V22.1663L80.5324 21.6674V17.5897C80.5324 16.8667 80.3082 16.3028 79.86 15.8979C79.4262 15.493 78.7538 15.2906 77.8428 15.2906C77.221 15.2906 76.6065 15.3918 75.9992 15.5942C75.4063 15.7822 74.9002 16.0425 74.4809 16.3751L73.2662 14.0108C73.9025 13.5626 74.6688 13.2155 75.5654 12.9697C76.4619 12.7239 77.3729 12.601 78.2983 12.601C80.0769 12.601 81.4578 13.0203 82.4411 13.859C83.4244 14.6977 83.916 16.0063 83.916 17.7849V24.4437H80.7493ZM77.1921 24.6172C76.2811 24.6172 75.5003 24.4654 74.8496 24.1618C74.1989 23.8436 73.7 23.4171 73.353 22.882C73.0059 22.347 72.8324 21.7469 72.8324 21.0818C72.8324 20.3877 72.9987 19.7804 73.3313 19.2598C73.6783 18.7393 74.2206 18.3344 74.958 18.0452C75.6955 17.7415 76.6571 17.5897 77.8428 17.5897H80.9445V19.5635H78.2115C77.4162 19.5635 76.8668 19.6936 76.5631 19.9539C76.2739 20.2142 76.1293 20.5395 76.1293 20.9299C76.1293 21.3637 76.2956 21.7108 76.6282 21.9711C76.9752 22.2169 77.4452 22.3398 78.038 22.3398C78.602 22.3398 79.1081 22.2097 79.5563 21.9494C80.0046 21.6746 80.3299 21.277 80.5324 20.7564L81.0529 22.3181C80.8071 23.07 80.3588 23.6412 79.7081 24.0316C79.0574 24.422 78.2188 24.6172 77.1921 24.6172ZM94.032 24.4437V9.26073H95.3551L102.296 21.1035H101.602L108.478 9.26073H109.801V24.4437H108.261V11.6683H108.629L102.296 22.5133H101.537L95.1599 11.6683H95.572V24.4437H94.032ZM121.341 24.5739C120.199 24.5739 119.143 24.3859 118.175 24.0099C117.206 23.6195 116.367 23.0773 115.659 22.3832C114.95 21.6891 114.393 20.8721 113.988 19.9322C113.598 18.9923 113.403 17.9656 113.403 16.8522C113.403 15.7388 113.598 14.7122 113.988 13.7723C114.393 12.8324 114.95 12.0154 115.659 11.3213C116.382 10.6272 117.228 10.0922 118.196 9.71623C119.165 9.32581 120.221 9.1306 121.363 9.1306C122.462 9.1306 123.496 9.31858 124.465 9.69454C125.434 10.056 126.251 10.6055 126.916 11.343L125.896 12.3624C125.275 11.7262 124.588 11.2707 123.836 10.9959C123.084 10.7067 122.274 10.5621 121.406 10.5621C120.495 10.5621 119.65 10.7212 118.869 11.0393C118.088 11.343 117.408 11.784 116.83 12.3624C116.251 12.9263 115.796 13.5915 115.463 14.3579C115.145 15.1098 114.986 15.9413 114.986 16.8522C114.986 17.7632 115.145 18.6019 115.463 19.3683C115.796 20.1202 116.251 20.7853 116.83 21.3637C117.408 21.9277 118.088 22.3687 118.869 22.6868C119.65 22.9905 120.495 23.1423 121.406 23.1423C122.274 23.1423 123.084 22.9977 123.836 22.7085C124.588 22.4193 125.275 21.9566 125.896 21.3204L126.916 22.3398C126.251 23.0773 125.434 23.634 124.465 24.0099C123.496 24.3859 122.455 24.5739 121.341 24.5739ZM130.337 24.4437V9.26073H136.02C137.307 9.26073 138.413 9.47041 139.339 9.88975C140.264 10.2946 140.973 10.8875 141.464 11.6683C141.97 12.4347 142.223 13.3674 142.223 14.4663C142.223 15.5364 141.97 16.4618 141.464 17.2427C140.973 18.009 140.264 18.6019 139.339 19.0212C138.413 19.4406 137.307 19.6502 136.02 19.6502H131.227L131.942 18.8911V24.4437H130.337ZM131.942 19.0212L131.227 18.2404H135.977C137.495 18.2404 138.645 17.915 139.425 17.2643C140.221 16.5992 140.618 15.6665 140.618 14.4663C140.618 13.2517 140.221 12.3118 139.425 11.6466C138.645 10.9815 137.495 10.6489 135.977 10.6489H131.227L131.942 9.88975V19.0212ZM158.176 24.5739C157.034 24.5739 155.978 24.3859 155.01 24.0099C154.041 23.6195 153.202 23.0773 152.493 22.3832C151.785 21.6891 151.228 20.8721 150.823 19.9322C150.433 18.9923 150.238 17.9656 150.238 16.8522C150.238 15.7388 150.433 14.7122 150.823 13.7723C151.228 12.8324 151.785 12.0154 152.493 11.3213C153.216 10.6272 154.062 10.0922 155.031 9.71623C156 9.32581 157.056 9.1306 158.198 9.1306C159.297 9.1306 160.331 9.31858 161.3 9.69454C162.268 10.056 163.085 10.6055 163.751 11.343L162.731 12.3624C162.109 11.7262 161.423 11.2707 160.671 10.9959C159.919 10.7067 159.109 10.5621 158.241 10.5621C157.33 10.5621 156.484 10.7212 155.704 11.0393C154.923 11.343 154.243 11.784 153.665 12.3624C153.086 12.9263 152.631 13.5915 152.298 14.3579C151.98 15.1098 151.821 15.9413 151.821 16.8522C151.821 17.7632 151.98 18.6019 152.298 19.3683C152.631 20.1202 153.086 20.7853 153.665 21.3637C154.243 21.9277 154.923 22.3687 155.704 22.6868C156.484 22.9905 157.33 23.1423 158.241 23.1423C159.109 23.1423 159.919 22.9977 160.671 22.7085C161.423 22.4193 162.109 21.9566 162.731 21.3204L163.751 22.3398C163.085 23.0773 162.268 23.634 161.3 24.0099C160.331 24.3859 159.29 24.5739 158.176 24.5739ZM170.98 24.5522C169.881 24.5522 168.891 24.3064 168.009 23.8147C167.141 23.3086 166.454 22.6218 165.948 21.7542C165.442 20.8721 165.189 19.8671 165.189 18.7393C165.189 17.5969 165.442 16.592 165.948 15.7244C166.454 14.8568 167.141 14.1771 168.009 13.6855C168.876 13.1939 169.867 12.948 170.98 12.948C172.108 12.948 173.106 13.1939 173.973 13.6855C174.855 14.1771 175.542 14.8568 176.034 15.7244C176.54 16.592 176.793 17.5969 176.793 18.7393C176.793 19.8671 176.54 20.8721 176.034 21.7542C175.542 22.6218 174.855 23.3086 173.973 23.8147C173.091 24.3064 172.094 24.5522 170.98 24.5522ZM170.98 23.1857C171.804 23.1857 172.535 23.005 173.171 22.6435C173.807 22.2675 174.306 21.7469 174.667 21.0818C175.043 20.4022 175.231 19.6213 175.231 18.7393C175.231 17.8427 175.043 17.0619 174.667 16.3967C174.306 15.7316 173.807 15.2183 173.171 14.8568C172.535 14.4808 171.812 14.2928 171.002 14.2928C170.192 14.2928 169.469 14.4808 168.833 14.8568C168.197 15.2183 167.69 15.7316 167.315 16.3967C166.939 17.0619 166.751 17.8427 166.751 18.7393C166.751 19.6213 166.939 20.4022 167.315 21.0818C167.69 21.7469 168.197 22.2675 168.833 22.6435C169.469 23.005 170.185 23.1857 170.98 23.1857ZM185.75 12.948C186.675 12.948 187.485 13.1288 188.179 13.4903C188.888 13.8373 189.437 14.3723 189.828 15.0953C190.233 15.8183 190.435 16.7293 190.435 17.8283V24.4437H188.895V17.9801C188.895 16.7799 188.591 15.8762 187.984 15.2689C187.391 14.6471 186.553 14.3362 185.468 14.3362C184.658 14.3362 183.95 14.5025 183.342 14.8351C182.75 15.1532 182.287 15.6231 181.954 16.2449C181.636 16.8522 181.477 17.5897 181.477 18.4573V24.4437H179.937V13.0565H181.412V16.1798L181.173 15.5942C181.535 14.77 182.113 14.1265 182.909 13.6638C183.704 13.1866 184.651 12.948 185.75 12.948ZM197.653 24.5522C196.713 24.5522 195.824 24.422 194.985 24.1618C194.146 23.887 193.489 23.5472 193.011 23.1423L193.705 21.9277C194.168 22.2747 194.761 22.5784 195.484 22.8387C196.207 23.0845 196.966 23.2074 197.761 23.2074C198.846 23.2074 199.627 23.0411 200.104 22.7085C200.581 22.3615 200.82 21.906 200.82 21.3421C200.82 20.9227 200.682 20.5974 200.408 20.366C200.147 20.1202 199.8 19.9394 199.367 19.8238C198.933 19.6936 198.448 19.5852 197.913 19.4984C197.378 19.4116 196.843 19.3104 196.308 19.1947C195.788 19.0791 195.311 18.9128 194.877 18.6959C194.443 18.4645 194.089 18.1536 193.814 17.7632C193.554 17.3728 193.423 16.8522 193.423 16.2015C193.423 15.5798 193.597 15.023 193.944 14.5314C194.291 14.0398 194.797 13.6566 195.462 13.3818C196.142 13.0926 196.966 12.948 197.935 12.948C198.672 12.948 199.41 13.0493 200.147 13.2517C200.885 13.4397 201.492 13.6927 201.969 14.0108L201.297 15.2472C200.791 14.9001 200.249 14.6543 199.67 14.5097C199.092 14.3507 198.513 14.2711 197.935 14.2711C196.908 14.2711 196.149 14.4519 195.658 14.8134C195.18 15.1604 194.942 15.6087 194.942 16.1582C194.942 16.592 195.072 16.9318 195.332 17.1776C195.607 17.4234 195.961 17.6186 196.395 17.7632C196.843 17.8933 197.328 18.0018 197.848 18.0886C198.383 18.1753 198.911 18.2838 199.432 18.4139C199.967 18.5296 200.451 18.6959 200.885 18.9128C201.333 19.1152 201.687 19.4116 201.948 19.8021C202.222 20.178 202.36 20.6769 202.36 21.2987C202.36 21.9638 202.172 22.5422 201.796 23.0339C201.434 23.5111 200.899 23.887 200.191 24.1618C199.497 24.422 198.651 24.5522 197.653 24.5522ZM209.827 24.5522C208.728 24.5522 207.738 24.3064 206.856 23.8147C205.988 23.3086 205.301 22.6218 204.795 21.7542C204.289 20.8721 204.036 19.8671 204.036 18.7393C204.036 17.5969 204.289 16.592 204.795 15.7244C205.301 14.8568 205.988 14.1771 206.856 13.6855C207.723 13.1939 208.714 12.948 209.827 12.948C210.955 12.948 211.953 13.1939 212.82 13.6855C213.702 14.1771 214.389 14.8568 214.881 15.7244C215.387 16.592 215.64 17.5969 215.64 18.7393C215.64 19.8671 215.387 20.8721 214.881 21.7542C214.389 22.6218 213.702 23.3086 212.82 23.8147C211.938 24.3064 210.941 24.5522 209.827 24.5522ZM209.827 23.1857C210.651 23.1857 211.382 23.005 212.018 22.6435C212.654 22.2675 213.153 21.7469 213.515 21.0818C213.89 20.4022 214.078 19.6213 214.078 18.7393C214.078 17.8427 213.89 17.0619 213.515 16.3967C213.153 15.7316 212.654 15.2183 212.018 14.8568C211.382 14.4808 210.659 14.2928 209.849 14.2928C209.039 14.2928 208.316 14.4808 207.68 14.8568C207.044 15.2183 206.538 15.7316 206.162 16.3967C205.786 17.0619 205.598 17.8427 205.598 18.7393C205.598 19.6213 205.786 20.4022 206.162 21.0818C206.538 21.7469 207.044 22.2675 207.68 22.6435C208.316 23.005 209.032 23.1857 209.827 23.1857ZM218.784 24.4437V8.34976H220.324V24.4437H218.784ZM229.446 24.5522C228.26 24.5522 227.219 24.3064 226.323 23.8147C225.426 23.3086 224.725 22.6218 224.219 21.7542C223.713 20.8721 223.46 19.8671 223.46 18.7393C223.46 17.6114 223.698 16.6136 224.175 15.746C224.667 14.8784 225.332 14.1988 226.171 13.7072C227.024 13.2011 227.978 12.948 229.034 12.948C230.104 12.948 231.051 13.1939 231.875 13.6855C232.714 14.1627 233.372 14.8423 233.849 15.7244C234.326 16.592 234.565 17.5969 234.565 18.7393C234.565 18.8116 234.558 18.8911 234.543 18.9778C234.543 19.0501 234.543 19.1297 234.543 19.2164H224.631V18.0669H233.719L233.112 18.5224C233.112 17.6981 232.931 16.9679 232.569 16.3317C232.222 15.681 231.745 15.1749 231.138 14.8134C230.53 14.4519 229.829 14.2711 229.034 14.2711C228.253 14.2711 227.552 14.4519 226.93 14.8134C226.308 15.1749 225.824 15.681 225.477 16.3317C225.13 16.9824 224.956 17.7271 224.956 18.5657V18.8043C224.956 19.6719 225.144 20.4383 225.52 21.1035C225.911 21.7542 226.446 22.2675 227.125 22.6435C227.819 23.005 228.607 23.1857 229.489 23.1857C230.183 23.1857 230.827 23.0628 231.42 22.817C232.027 22.5712 232.548 22.1952 232.981 21.6891L233.849 22.6868C233.343 23.2942 232.707 23.7569 231.94 24.075C231.188 24.3931 230.357 24.5522 229.446 24.5522Z" fill="#0A2E6D"/>
<defs>
<linearGradient id="paint0_linear_1524_11260" x1="25.1338" y1="10.6734" x2="17.4519" y2="26.489" gradientUnits="userSpaceOnUse">
<stop stop-color="#14B8A6"/>
<stop offset="1" stop-color="#0A2E6D"/>
</linearGradient>
</defs>
</svg>
