<svg width="226" height="32" viewBox="0 0 226 32" fill="none" xmlns="http://www.w3.org/2000/svg">
<path d="M12.0059 23.0404C11.0116 22.171 10.1732 21.1405 9.52487 19.9964C8.55086 18.2776 8.00586 16.3023 8.00586 14.2314V9.44337L15.7152 6.76448C15.9042 6.69881 16.1098 6.69882 16.2988 6.76451L18.6725 7.58958V12.3987C18.6725 14.2874 17.4789 15.9697 15.6963 16.5937L9.78364 18.6631" stroke="#26251E" stroke-width="3.73333" stroke-linejoin="round"/>
<path d="M24.0018 9.44238V14.2326C24.0018 19.2675 20.7796 23.7374 16.0029 25.329C15.2173 25.0673 14.4737 24.7277 13.7795 24.3206" stroke="url(#paint0_linear_4697_7176)" stroke-width="3.73333" stroke-linejoin="round"/>
<path d="M33.7074 23.5V9.1H39.9406C41.2297 9.1 42.3406 9.31257 43.2731 9.73772C44.2057 10.1491 44.9257 10.7457 45.4331 11.5274C45.9406 12.3091 46.1943 13.2417 46.1943 14.3251C46.1943 15.3949 45.9406 16.3206 45.4331 17.1023C44.9257 17.884 44.2057 18.4874 43.2731 18.9126C42.3406 19.324 41.2297 19.5297 39.9406 19.5297H35.5589L37.04 18.028V23.5H33.7074ZM37.04 18.3983L35.5589 16.8143H39.7554C40.784 16.8143 41.552 16.5949 42.0594 16.156C42.5669 15.7171 42.8206 15.1069 42.8206 14.3251C42.8206 13.5297 42.5669 12.9126 42.0594 12.4737C41.552 12.0349 40.784 11.8154 39.7554 11.8154H35.5589L37.04 10.2314V18.3983ZM53.8197 23.6646C52.558 23.6646 51.4471 23.4177 50.4871 22.924C49.5408 22.4303 48.8071 21.7583 48.286 20.908C47.7648 20.044 47.5043 19.0634 47.5043 17.9663C47.5043 16.8554 47.758 15.8749 48.2654 15.0246C48.7866 14.1606 49.4928 13.4886 50.3843 13.0086C51.2757 12.5149 52.2837 12.268 53.4083 12.268C54.4917 12.268 55.4654 12.5011 56.3294 12.9674C57.2071 13.42 57.8997 14.0783 58.4071 14.9423C58.9146 15.7926 59.1683 16.8143 59.1683 18.0074C59.1683 18.1309 59.1614 18.2749 59.1477 18.4394C59.134 18.5903 59.1203 18.7343 59.1066 18.8714H50.1168V16.9994H57.4197L56.1854 17.5549C56.1854 16.9789 56.0688 16.4783 55.8357 16.0531C55.6026 15.628 55.2803 15.2989 54.8688 15.0657C54.4574 14.8189 53.9774 14.6954 53.4288 14.6954C52.8803 14.6954 52.3934 14.8189 51.9683 15.0657C51.5568 15.2989 51.2346 15.6349 51.0014 16.0737C50.7683 16.4989 50.6517 17.0063 50.6517 17.596V18.0897C50.6517 18.6931 50.782 19.228 51.0426 19.6943C51.3168 20.1469 51.694 20.4966 52.174 20.7434C52.6677 20.9766 53.2437 21.0931 53.902 21.0931C54.4917 21.0931 55.006 21.004 55.4448 20.8257C55.8974 20.6474 56.3088 20.38 56.6791 20.0234L58.3866 21.8749C57.8791 22.4509 57.2414 22.8966 56.4734 23.212C55.7054 23.5137 54.8208 23.6646 53.8197 23.6646ZM65.8305 23.6646C64.5277 23.6646 63.5128 23.3354 62.7859 22.6771C62.0591 22.0051 61.6957 21.0109 61.6957 19.6943V9.98457H64.9048V19.6531C64.9048 20.1194 65.0282 20.4829 65.2751 20.7434C65.5219 20.9903 65.8579 21.1137 66.2831 21.1137C66.7905 21.1137 67.2225 20.9766 67.5791 20.7023L68.4431 22.9651C68.1139 23.1983 67.7162 23.3766 67.2499 23.5C66.7974 23.6097 66.3242 23.6646 65.8305 23.6646ZM59.9882 15.148V12.6794H67.6614V15.148H59.9882ZM77.0331 23.5V21.34L76.8274 20.8669V16.9994C76.8274 16.3137 76.6148 15.7789 76.1897 15.3949C75.7782 15.0109 75.1405 14.8189 74.2765 14.8189C73.6868 14.8189 73.104 14.9149 72.528 15.1069C71.9657 15.2851 71.4857 15.532 71.088 15.8474L69.936 13.6051C70.5394 13.18 71.2662 12.8509 72.1165 12.6177C72.9668 12.3846 73.8308 12.268 74.7085 12.268C76.3954 12.268 77.7051 12.6657 78.6377 13.4611C79.5702 14.2566 80.0365 15.4977 80.0365 17.1846V23.5H77.0331ZM73.6594 23.6646C72.7954 23.6646 72.0548 23.5206 71.4377 23.2326C70.8205 22.9309 70.3474 22.5263 70.0182 22.0189C69.6891 21.5114 69.5245 20.9423 69.5245 20.3114C69.5245 19.6531 69.6822 19.0771 69.9977 18.5834C70.3268 18.0897 70.8411 17.7057 71.5405 17.4314C72.24 17.1434 73.152 16.9994 74.2765 16.9994H77.2182V18.8714H74.6262C73.872 18.8714 73.3508 18.9949 73.0628 19.2417C72.7885 19.4886 72.6514 19.7971 72.6514 20.1674C72.6514 20.5789 72.8091 20.908 73.1245 21.1549C73.4537 21.388 73.8994 21.5046 74.4617 21.5046C74.9965 21.5046 75.4765 21.3811 75.9017 21.1343C76.3268 20.8737 76.6354 20.4966 76.8274 20.0029L77.3211 21.484C77.088 22.1971 76.6628 22.7389 76.0457 23.1091C75.4285 23.4794 74.6331 23.6646 73.6594 23.6646ZM95.4426 23.6234C94.3592 23.6234 93.358 23.4451 92.4392 23.0886C91.5203 22.7183 90.7249 22.204 90.0529 21.5457C89.3809 20.8874 88.8529 20.1126 88.4689 19.2211C88.0986 18.3297 87.9135 17.356 87.9135 16.3C87.9135 15.244 88.0986 14.2703 88.4689 13.3789C88.8529 12.4874 89.3809 11.7126 90.0529 11.0543C90.7386 10.396 91.5409 9.88857 92.4597 9.532C93.3786 9.16172 94.3797 8.97657 95.4632 8.97657C96.5055 8.97657 97.486 9.15486 98.4049 9.51143C99.3237 9.85429 100.099 10.3754 100.729 11.0749L99.7626 12.0417C99.1729 11.4383 98.5215 11.0063 97.8083 10.7457C97.0952 10.4714 96.3272 10.3343 95.5043 10.3343C94.6403 10.3343 93.838 10.4851 93.0975 10.7869C92.3569 11.0749 91.7123 11.4931 91.1637 12.0417C90.6152 12.5766 90.1832 13.2074 89.8677 13.9343C89.566 14.6474 89.4152 15.436 89.4152 16.3C89.4152 17.164 89.566 17.9594 89.8677 18.6863C90.1832 19.3994 90.6152 20.0303 91.1637 20.5789C91.7123 21.1137 92.3569 21.532 93.0975 21.8337C93.838 22.1217 94.6403 22.2657 95.5043 22.2657C96.3272 22.2657 97.0952 22.1286 97.8083 21.8543C98.5215 21.58 99.1729 21.1411 99.7626 20.5377L100.729 21.5046C100.099 22.204 99.3237 22.732 98.4049 23.0886C97.486 23.4451 96.4986 23.6234 95.4426 23.6234ZM107.586 23.6029C106.544 23.6029 105.604 23.3697 104.768 22.9034C103.945 22.4234 103.294 21.772 102.814 20.9491C102.334 20.1126 102.094 19.1594 102.094 18.0897C102.094 17.0063 102.334 16.0531 102.814 15.2303C103.294 14.4074 103.945 13.7629 104.768 13.2966C105.591 12.8303 106.53 12.5971 107.586 12.5971C108.656 12.5971 109.602 12.8303 110.425 13.2966C111.262 13.7629 111.913 14.4074 112.379 15.2303C112.859 16.0531 113.099 17.0063 113.099 18.0897C113.099 19.1594 112.859 20.1126 112.379 20.9491C111.913 21.772 111.262 22.4234 110.425 22.9034C109.588 23.3697 108.642 23.6029 107.586 23.6029ZM107.586 22.3069C108.368 22.3069 109.06 22.1354 109.664 21.7926C110.267 21.436 110.74 20.9423 111.083 20.3114C111.44 19.6669 111.618 18.9263 111.618 18.0897C111.618 17.2394 111.44 16.4989 111.083 15.868C110.74 15.2371 110.267 14.7503 109.664 14.4074C109.06 14.0509 108.375 13.8726 107.607 13.8726C106.839 13.8726 106.153 14.0509 105.55 14.4074C104.946 14.7503 104.466 15.2371 104.11 15.868C103.753 16.4989 103.575 17.2394 103.575 18.0897C103.575 18.9263 103.753 19.6669 104.11 20.3114C104.466 20.9423 104.946 21.436 105.55 21.7926C106.153 22.1354 106.832 22.3069 107.586 22.3069ZM121.594 12.5971C122.472 12.5971 123.24 12.7686 123.898 13.1114C124.57 13.4406 125.091 13.948 125.462 14.6337C125.846 15.3194 126.038 16.1834 126.038 17.2257V23.5H124.577V17.3697C124.577 16.2314 124.289 15.3743 123.713 14.7983C123.151 14.2086 122.355 13.9137 121.327 13.9137C120.559 13.9137 119.887 14.0714 119.311 14.3869C118.749 14.6886 118.31 15.1343 117.994 15.724C117.693 16.3 117.542 16.9994 117.542 17.8223V23.5H116.081V12.7H117.48V15.6623L117.254 15.1069C117.597 14.3251 118.145 13.7149 118.899 13.276C119.654 12.8234 120.552 12.5971 121.594 12.5971ZM132.884 23.6029C131.992 23.6029 131.149 23.4794 130.353 23.2326C129.558 22.972 128.934 22.6497 128.481 22.2657L129.14 21.1137C129.578 21.4429 130.141 21.7309 130.826 21.9777C131.512 22.2109 132.232 22.3274 132.986 22.3274C134.015 22.3274 134.756 22.1697 135.208 21.8543C135.661 21.5251 135.887 21.0931 135.887 20.5583C135.887 20.1606 135.757 19.852 135.496 19.6326C135.249 19.3994 134.92 19.228 134.509 19.1183C134.097 18.9949 133.638 18.892 133.13 18.8097C132.623 18.7274 132.116 18.6314 131.608 18.5217C131.114 18.412 130.662 18.2543 130.25 18.0486C129.839 17.8291 129.503 17.5343 129.242 17.164C128.996 16.7937 128.872 16.3 128.872 15.6829C128.872 15.0931 129.037 14.5651 129.366 14.0989C129.695 13.6326 130.175 13.2691 130.806 13.0086C131.45 12.7343 132.232 12.5971 133.151 12.5971C133.85 12.5971 134.55 12.6931 135.249 12.8851C135.949 13.0634 136.525 13.3034 136.977 13.6051L136.34 14.7777C135.86 14.4486 135.345 14.2154 134.797 14.0783C134.248 13.9274 133.7 13.852 133.151 13.852C132.177 13.852 131.457 14.0234 130.991 14.3663C130.538 14.6954 130.312 15.1206 130.312 15.6417C130.312 16.0531 130.436 16.3754 130.682 16.6086C130.943 16.8417 131.279 17.0269 131.69 17.164C132.116 17.2874 132.575 17.3903 133.069 17.4726C133.576 17.5549 134.077 17.6577 134.57 17.7811C135.078 17.8909 135.537 18.0486 135.949 18.2543C136.374 18.4463 136.71 18.7274 136.957 19.0977C137.217 19.4543 137.348 19.9274 137.348 20.5171C137.348 21.148 137.169 21.6966 136.813 22.1629C136.47 22.6154 135.962 22.972 135.29 23.2326C134.632 23.4794 133.83 23.6029 132.884 23.6029ZM144.43 23.6029C143.388 23.6029 142.448 23.3697 141.612 22.9034C140.789 22.4234 140.137 21.772 139.657 20.9491C139.177 20.1126 138.937 19.1594 138.937 18.0897C138.937 17.0063 139.177 16.0531 139.657 15.2303C140.137 14.4074 140.789 13.7629 141.612 13.2966C142.434 12.8303 143.374 12.5971 144.43 12.5971C145.5 12.5971 146.446 12.8303 147.269 13.2966C148.105 13.7629 148.757 14.4074 149.223 15.2303C149.703 16.0531 149.943 17.0063 149.943 18.0897C149.943 19.1594 149.703 20.1126 149.223 20.9491C148.757 21.772 148.105 22.4234 147.269 22.9034C146.432 23.3697 145.486 23.6029 144.43 23.6029ZM144.43 22.3069C145.212 22.3069 145.904 22.1354 146.508 21.7926C147.111 21.436 147.584 20.9423 147.927 20.3114C148.284 19.6669 148.462 18.9263 148.462 18.0897C148.462 17.2394 148.284 16.4989 147.927 15.868C147.584 15.2371 147.111 14.7503 146.508 14.4074C145.904 14.0509 145.218 13.8726 144.45 13.8726C143.682 13.8726 142.997 14.0509 142.393 14.4074C141.79 14.7503 141.31 15.2371 140.953 15.868C140.597 16.4989 140.418 17.2394 140.418 18.0897C140.418 18.9263 140.597 19.6669 140.953 20.3114C141.31 20.9423 141.79 21.436 142.393 21.7926C142.997 22.1354 143.676 22.3069 144.43 22.3069ZM152.925 23.5V8.236H154.386V23.5H152.925ZM163.037 23.6029C161.912 23.6029 160.925 23.3697 160.075 22.9034C159.224 22.4234 158.559 21.772 158.079 20.9491C157.599 20.1126 157.359 19.1594 157.359 18.0897C157.359 17.02 157.586 16.0737 158.038 15.2509C158.504 14.428 159.135 13.7834 159.931 13.3171C160.74 12.8371 161.645 12.5971 162.646 12.5971C163.661 12.5971 164.559 12.8303 165.341 13.2966C166.136 13.7491 166.76 14.3937 167.213 15.2303C167.666 16.0531 167.892 17.0063 167.892 18.0897C167.892 18.1583 167.885 18.2337 167.871 18.316C167.871 18.3846 167.871 18.46 167.871 18.5423H158.47V17.452H167.09L166.514 17.884C166.514 17.1023 166.342 16.4097 165.999 15.8063C165.67 15.1891 165.218 14.7091 164.642 14.3663C164.066 14.0234 163.4 13.852 162.646 13.852C161.906 13.852 161.24 14.0234 160.651 14.3663C160.061 14.7091 159.602 15.1891 159.272 15.8063C158.943 16.4234 158.779 17.1297 158.779 17.9251V18.1514C158.779 18.9743 158.957 19.7011 159.314 20.332C159.684 20.9491 160.191 21.436 160.836 21.7926C161.494 22.1354 162.242 22.3069 163.078 22.3069C163.736 22.3069 164.347 22.1903 164.909 21.9571C165.485 21.724 165.979 21.3674 166.39 20.8874L167.213 21.8337C166.733 22.4097 166.13 22.8486 165.403 23.1503C164.69 23.452 163.901 23.6029 163.037 23.6029Z" fill="#26251E"/>
<defs>
<linearGradient id="paint0_linear_4697_7176" x1="24.0018" y1="9.77321" x2="16.4462" y2="25.3288" gradientUnits="userSpaceOnUse">
<stop stop-color="#F56711"/>
<stop offset="1" stop-color="#26251E"/>
</linearGradient>
</defs>
</svg>
