<svg width="238" height="34" viewBox="0 0 238 34" fill="none" xmlns="http://www.w3.org/2000/svg">
<path d="M12.6587 24.2932C11.6104 23.3765 10.7264 22.29 10.0428 21.0837C9.01586 19.2714 8.44122 17.1887 8.44122 15.0052V9.95685L16.5698 7.1323C16.769 7.06306 16.9858 7.06307 17.1851 7.13233L19.6879 8.00226V13.0729C19.6879 15.0642 18.4294 16.8381 16.5498 17.4959L10.3157 19.6779" stroke="white" stroke-width="3.93633" stroke-linejoin="round"/>
<path d="M25.3069 9.95557V15.0063C25.3069 20.3149 21.9096 25.0279 16.8731 26.706C16.0448 26.4301 15.2608 26.0721 14.5289 25.6428" stroke="url(#paint0_linear_5621_16731)" stroke-width="3.93633" stroke-linejoin="round"/>
<path d="M35.5402 24.8699V9.68688H42.1123C43.4715 9.68688 44.6428 9.91101 45.6261 10.3593C46.6094 10.7931 47.3685 11.4221 47.9035 12.2463C48.4386 13.0705 48.7061 14.0538 48.7061 15.1961C48.7061 16.324 48.4386 17.3001 47.9035 18.1243C47.3685 18.9485 46.6094 19.5847 45.6261 20.033C44.6428 20.4668 43.4715 20.6837 42.1123 20.6837H37.4923L39.054 19.1003V24.8699H35.5402ZM39.054 19.4908L37.4923 17.8206H41.9171C43.0016 17.8206 43.8114 17.5893 44.3464 17.1265C44.8814 16.6638 45.1489 16.0204 45.1489 15.1961C45.1489 14.3575 44.8814 13.7068 44.3464 13.244C43.8114 12.7813 43.0016 12.55 41.9171 12.55H37.4923L39.054 10.8798V19.4908ZM56.7461 25.0434C55.4158 25.0434 54.2445 24.7831 53.2323 24.2626C52.2346 23.742 51.461 23.0335 50.9115 22.1369C50.362 21.226 50.0873 20.1921 50.0873 19.0353C50.0873 17.864 50.3548 16.8301 50.8898 15.9336C51.4393 15.0226 52.184 14.3141 53.1239 13.808C54.0638 13.2874 55.1266 13.0271 56.3123 13.0271C57.4546 13.0271 58.4813 13.273 59.3923 13.7646C60.3177 14.2418 61.0479 14.9359 61.583 15.8468C62.118 16.7434 62.3855 17.8206 62.3855 19.0786C62.3855 19.2088 62.3783 19.3606 62.3638 19.5341C62.3493 19.6932 62.3349 19.845 62.3204 19.9896H52.8419V18.0158H60.5418L59.2405 18.6015C59.2405 17.9941 59.1175 17.4664 58.8717 17.0181C58.6259 16.5698 58.2861 16.2228 57.8523 15.977C57.4185 15.7167 56.9124 15.5866 56.334 15.5866C55.7556 15.5866 55.2423 15.7167 54.794 15.977C54.3602 16.2228 54.0204 16.5771 53.7746 17.0398C53.5288 17.488 53.4058 18.0231 53.4058 18.6448V19.1654C53.4058 19.8016 53.5432 20.3656 53.818 20.8572C54.1072 21.3344 54.5048 21.7031 55.0109 21.9634C55.5315 22.2092 56.1388 22.3321 56.8329 22.3321C57.4546 22.3321 57.9969 22.2382 58.4596 22.0502C58.9368 21.8622 59.3706 21.5802 59.761 21.2043L61.5613 23.1564C61.0263 23.7637 60.3539 24.2336 59.5441 24.5662C58.7344 24.8843 57.8017 25.0434 56.7461 25.0434ZM69.41 25.0434C68.0363 25.0434 66.9663 24.6964 66.1999 24.0023C65.4335 23.2937 65.0503 22.2454 65.0503 20.8572V10.6196H68.434V20.8138C68.434 21.3055 68.5641 21.6887 68.8244 21.9634C69.0847 22.2237 69.4389 22.3538 69.8872 22.3538C70.4222 22.3538 70.8777 22.2092 71.2537 21.92L72.1646 24.3059C71.8176 24.5518 71.3983 24.7397 70.9066 24.8699C70.4294 24.9856 69.9306 25.0434 69.41 25.0434ZM63.25 16.0637V13.4609H71.3404V16.0637H63.25ZM81.2217 24.8699V22.5924L81.0048 22.0936V18.0158C81.0048 17.2928 80.7807 16.7289 80.3324 16.324C79.8986 15.9191 79.2262 15.7167 78.3153 15.7167C77.6935 15.7167 77.0789 15.8179 76.4716 16.0204C75.8788 16.2083 75.3727 16.4686 74.9533 16.8012L73.7387 14.437C74.3749 13.9887 75.1413 13.6417 76.0378 13.3959C76.9343 13.1501 77.8453 13.0271 78.7708 13.0271C80.5493 13.0271 81.9303 13.4465 82.9135 14.2852C83.8968 15.1238 84.3885 16.4325 84.3885 18.211V24.8699H81.2217ZM77.6646 25.0434C76.7536 25.0434 75.9727 24.8916 75.322 24.5879C74.6713 24.2698 74.1725 23.8432 73.8254 23.3082C73.4784 22.7732 73.3049 22.1731 73.3049 21.5079C73.3049 20.8138 73.4712 20.2065 73.8037 19.686C74.1508 19.1654 74.693 18.7605 75.4305 18.4713C76.168 18.1677 77.1295 18.0158 78.3153 18.0158H81.4169V19.9896H78.684C77.8887 19.9896 77.3392 20.1198 77.0356 20.38C76.7464 20.6403 76.6018 20.9657 76.6018 21.3561C76.6018 21.7899 76.768 22.1369 77.1006 22.3972C77.4477 22.643 77.9176 22.7659 78.5105 22.7659C79.0744 22.7659 79.5805 22.6358 80.0288 22.3755C80.477 22.1008 80.8024 21.7031 81.0048 21.1826L81.5254 22.7443C81.2796 23.4962 80.8313 24.0673 80.1806 24.4578C79.5299 24.8482 78.6912 25.0434 77.6646 25.0434ZM100.632 25C99.4899 25 98.4343 24.812 97.4655 24.4361C96.4967 24.0457 95.658 23.5034 94.9495 22.8093C94.2409 22.1152 93.6842 21.2983 93.2793 20.3584C92.8889 19.4185 92.6937 18.3918 92.6937 17.2784C92.6937 16.165 92.8889 15.1383 93.2793 14.1984C93.6842 13.2585 94.2409 12.4415 94.9495 11.7474C95.6725 11.0534 96.5184 10.5183 97.4872 10.1424C98.456 9.75195 99.5116 9.55674 100.654 9.55674C101.753 9.55674 102.787 9.74472 103.756 10.1207C104.724 10.4822 105.541 11.0317 106.207 11.7691L105.187 12.7886C104.565 12.1523 103.878 11.6968 103.127 11.4221C102.375 11.1329 101.565 10.9883 100.697 10.9883C99.7863 10.9883 98.9404 11.1473 98.1596 11.4655C97.3787 11.7691 96.6991 12.2102 96.1207 12.7886C95.5423 13.3525 95.0868 14.0177 94.7542 14.784C94.4361 15.5359 94.2771 16.3674 94.2771 17.2784C94.2771 18.1894 94.4361 19.028 94.7542 19.7944C95.0868 20.5463 95.5423 21.2115 96.1207 21.7899C96.6991 22.3538 97.3787 22.7949 98.1596 23.113C98.9404 23.4166 99.7863 23.5685 100.697 23.5685C101.565 23.5685 102.375 23.4239 103.127 23.1347C103.878 22.8455 104.565 22.3828 105.187 21.7465L106.207 22.7659C105.541 23.5034 104.724 24.0601 103.756 24.4361C102.787 24.812 101.746 25 100.632 25ZM113.436 24.9783C112.337 24.9783 111.347 24.7325 110.465 24.2409C109.597 23.7348 108.91 23.0479 108.404 22.1803C107.898 21.2983 107.645 20.2933 107.645 19.1654C107.645 18.0231 107.898 17.0181 108.404 16.1505C108.91 15.2829 109.597 14.6033 110.465 14.1116C111.332 13.62 112.323 13.3742 113.436 13.3742C114.564 13.3742 115.562 13.62 116.429 14.1116C117.311 14.6033 117.998 15.2829 118.49 16.1505C118.996 17.0181 119.249 18.0231 119.249 19.1654C119.249 20.2933 118.996 21.2983 118.49 22.1803C117.998 23.0479 117.311 23.7348 116.429 24.2409C115.547 24.7325 114.55 24.9783 113.436 24.9783ZM113.436 23.6119C114.26 23.6119 114.991 23.4311 115.627 23.0696C116.263 22.6936 116.762 22.1731 117.123 21.5079C117.499 20.8283 117.687 20.0475 117.687 19.1654C117.687 18.2689 117.499 17.488 117.123 16.8229C116.762 16.1577 116.263 15.6444 115.627 15.2829C114.991 14.9069 114.268 14.719 113.458 14.719C112.648 14.719 111.925 14.9069 111.289 15.2829C110.653 15.6444 110.146 16.1577 109.77 16.8229C109.395 17.488 109.207 18.2689 109.207 19.1654C109.207 20.0475 109.395 20.8283 109.77 21.5079C110.146 22.1731 110.653 22.6936 111.289 23.0696C111.925 23.4311 112.641 23.6119 113.436 23.6119ZM128.206 13.3742C129.131 13.3742 129.941 13.5549 130.635 13.9164C131.344 14.2635 131.893 14.7985 132.284 15.5215C132.689 16.2445 132.891 17.1555 132.891 18.2544V24.8699H131.351V18.4063C131.351 17.2061 131.047 16.3023 130.44 15.695C129.847 15.0732 129.008 14.7623 127.924 14.7623C127.114 14.7623 126.406 14.9286 125.798 15.2612C125.206 15.5793 124.743 16.0493 124.41 16.6711C124.092 17.2784 123.933 18.0158 123.933 18.8834V24.8699H122.393V13.4826H123.868V16.606L123.629 16.0204C123.991 15.1961 124.569 14.5527 125.365 14.09C126.16 13.6128 127.107 13.3742 128.206 13.3742ZM140.109 24.9783C139.169 24.9783 138.28 24.8482 137.441 24.5879C136.602 24.3132 135.945 23.9734 135.467 23.5685L136.161 22.3538C136.624 22.7009 137.217 23.0045 137.94 23.2648C138.663 23.5106 139.422 23.6335 140.217 23.6335C141.302 23.6335 142.083 23.4673 142.56 23.1347C143.037 22.7876 143.276 22.3321 143.276 21.7682C143.276 21.3489 143.138 21.0235 142.864 20.7922C142.603 20.5463 142.256 20.3656 141.823 20.2499C141.389 20.1198 140.904 20.0113 140.369 19.9246C139.834 19.8378 139.299 19.7366 138.764 19.6209C138.244 19.5052 137.766 19.3389 137.333 19.122C136.899 18.8907 136.545 18.5798 136.27 18.1894C136.01 17.7989 135.879 17.2784 135.879 16.6277C135.879 16.0059 136.053 15.4492 136.4 14.9575C136.747 14.4659 137.253 14.0827 137.918 13.808C138.598 13.5188 139.422 13.3742 140.391 13.3742C141.128 13.3742 141.866 13.4754 142.603 13.6778C143.341 13.8658 143.948 14.1189 144.425 14.437L143.753 15.6733C143.247 15.3263 142.705 15.0805 142.126 14.9359C141.548 14.7768 140.969 14.6973 140.391 14.6973C139.364 14.6973 138.605 14.878 138.114 15.2395C137.636 15.5866 137.398 16.0348 137.398 16.5843C137.398 17.0181 137.528 17.3579 137.788 17.6037C138.063 17.8495 138.417 18.0448 138.851 18.1894C139.299 18.3195 139.784 18.4279 140.304 18.5147C140.839 18.6015 141.367 18.7099 141.888 18.8401C142.423 18.9557 142.907 19.122 143.341 19.3389C143.789 19.5414 144.143 19.8378 144.404 20.2282C144.678 20.6042 144.816 21.103 144.816 21.7248C144.816 22.39 144.628 22.9684 144.252 23.46C143.89 23.9372 143.355 24.3132 142.647 24.5879C141.953 24.8482 141.107 24.9783 140.109 24.9783ZM152.283 24.9783C151.184 24.9783 150.194 24.7325 149.312 24.2409C148.444 23.7348 147.757 23.0479 147.251 22.1803C146.745 21.2983 146.492 20.2933 146.492 19.1654C146.492 18.0231 146.745 17.0181 147.251 16.1505C147.757 15.2829 148.444 14.6033 149.312 14.1116C150.179 13.62 151.17 13.3742 152.283 13.3742C153.411 13.3742 154.409 13.62 155.276 14.1116C156.158 14.6033 156.845 15.2829 157.337 16.1505C157.843 17.0181 158.096 18.0231 158.096 19.1654C158.096 20.2933 157.843 21.2983 157.337 22.1803C156.845 23.0479 156.158 23.7348 155.276 24.2409C154.394 24.7325 153.397 24.9783 152.283 24.9783ZM152.283 23.6119C153.107 23.6119 153.838 23.4311 154.474 23.0696C155.11 22.6936 155.609 22.1731 155.97 21.5079C156.346 20.8283 156.534 20.0475 156.534 19.1654C156.534 18.2689 156.346 17.488 155.97 16.8229C155.609 16.1577 155.11 15.6444 154.474 15.2829C153.838 14.9069 153.115 14.719 152.305 14.719C151.495 14.719 150.772 14.9069 150.136 15.2829C149.5 15.6444 148.994 16.1577 148.618 16.8229C148.242 17.488 148.054 18.2689 148.054 19.1654C148.054 20.0475 148.242 20.8283 148.618 21.5079C148.994 22.1731 149.5 22.6936 150.136 23.0696C150.772 23.4311 151.488 23.6119 152.283 23.6119ZM161.24 24.8699V8.7759H162.78V24.8699H161.24ZM171.902 24.9783C170.716 24.9783 169.675 24.7325 168.779 24.2409C167.882 23.7348 167.181 23.0479 166.675 22.1803C166.169 21.2983 165.916 20.2933 165.916 19.1654C165.916 18.0375 166.154 17.0398 166.631 16.1722C167.123 15.3046 167.788 14.625 168.627 14.1333C169.48 13.6272 170.434 13.3742 171.49 13.3742C172.56 13.3742 173.507 13.62 174.331 14.1116C175.17 14.5888 175.828 15.2684 176.305 16.1505C176.782 17.0181 177.021 18.0231 177.021 19.1654C177.021 19.2377 177.014 19.3172 176.999 19.404C176.999 19.4763 176.999 19.5558 176.999 19.6426H167.087V18.493H176.175L175.568 18.9485C175.568 18.1243 175.387 17.3941 175.025 16.7578C174.678 16.1071 174.201 15.601 173.594 15.2395C172.986 14.878 172.285 14.6973 171.49 14.6973C170.709 14.6973 170.008 14.878 169.386 15.2395C168.764 15.601 168.28 16.1071 167.933 16.7578C167.586 17.4085 167.412 18.1532 167.412 18.9919V19.2305C167.412 20.0981 167.6 20.8645 167.976 21.5296C168.366 22.1803 168.902 22.6936 169.581 23.0696C170.275 23.4311 171.063 23.6119 171.945 23.6119C172.639 23.6119 173.283 23.4889 173.876 23.2431C174.483 22.9973 175.004 22.6213 175.437 22.1152L176.305 23.113C175.799 23.7203 175.163 24.183 174.396 24.5011C173.644 24.8193 172.813 24.9783 171.902 24.9783Z" fill="white"/>
<defs>
<linearGradient id="paint0_linear_5621_16731" x1="25.3069" y1="10.3044" x2="17.3405" y2="26.7058" gradientUnits="userSpaceOnUse">
<stop stop-color="#F56711"/>
<stop offset="1" stop-color="white"/>
</linearGradient>
</defs>
</svg>
